<?xml version="1.0" standalone="no"?><!DOCTYPE svg PUBLIC "-//W3C//DTD SVG 1.1//EN" "http://www.w3.org/Graphics/SVG/1.1/DTD/svg11.dtd"><svg t="1719751421894" class="icon" viewBox="0 0 1024 1024" version="1.1" xmlns="http://www.w3.org/2000/svg" p-id="6198" width="32" height="32" xmlns:xlink="http://www.w3.org/1999/xlink"><path d="M700.98488889 221.29777778H205.824c-40.16355555 0-72.81777778 32.65422222-72.81777778 72.81777777v553.41511112c0 40.16355555 32.65422222 72.81777778 72.81777778 72.81777778h495.16088889c40.16355555 0 72.81777778-32.65422222 72.81777778-72.81777778V294.11555555c0-40.16355555-32.65422222-72.81777778-72.81777778-72.81777777z m14.56355556 626.23288889c0 7.96444445-6.59911111 14.56355555-14.56355556 14.56355555H205.824c-8.07822222 0-14.56355555-6.48533333-14.56355555-14.56355555V294.11555555c0-8.07822222 6.48533333-14.56355555 14.56355555-14.56355555h495.16088889c8.07822222 0 14.56355555 6.48533333 14.56355556 14.56355555v553.41511112z m0 0" p-id="6199" fill="#515151"></path><path d="M817.49333333 104.78933333H322.33244445c-16.04266667 0-29.12711111 13.08444445-29.12711112 29.12711112 0 16.04266667 13.08444445 29.12711111 29.12711112 29.1271111h495.16088888c8.07822222 0 14.56355555 6.48533333 14.56355556 14.56355556v553.41511111c0 16.04266667 13.08444445 29.12711111 29.12711111 29.12711111 16.04266667 0 29.12711111-13.08444445 29.12711111-29.12711111V177.60711111c0-40.16355555-32.65422222-72.81777778-72.81777778-72.81777778z m0 0" p-id="6200" fill="#515151"></path><path d="M641.93422222 449.64977778c12.288 12.17422222 12.288 31.85777778 0 44.032L438.84088889 695.40977778c-24.46222222 24.34844445-64.17066667 24.34844445-88.63288889 0l-83.51288889-82.944c-12.288-12.17422222-12.288-31.85777778 0-44.032 12.288-12.17422222 32.08533333-12.17422222 44.25955556 0l83.51288888 82.944 203.09333334-201.728c12.288-12.17422222 32.08533333-12.17422222 44.37333333 0z" p-id="6201" fill="#515151"></path></svg>